<svg width="5" height="8" viewBox="0 0 5 8" fill="none" xmlns="http://www.w3.org/2000/svg">
<g id="1">
<path id="Vector" d="M0.300297 8C0.339721 8.00002 0.378762 7.99227 0.41519 7.9772C0.451618 7.96212 0.48472 7.94002 0.512605 7.91216L4.21229 4.21227C4.26856 4.15598 4.30017 4.07965 4.30017 4.00006C4.30017 3.92047 4.26856 3.84414 4.21229 3.78785L0.512605 0.0879702C0.484738 0.0600895 0.451652 0.0379708 0.415236 0.0228768C0.378821 0.00778284 0.339788 9.29986e-06 0.300369 8.33927e-09C0.260949 -9.28318e-06 0.221913 0.00774589 0.18549 0.0228227C0.149067 0.0378995 0.11597 0.0600027 0.0880895 0.0878702C0.0602088 0.115738 0.0380902 0.148824 0.0229964 0.18524C0.00790262 0.221655 0.000128269 0.260688 0.000119209 0.300108C0.000109673 0.339528 0.00786543 0.378563 0.0229421 0.414986C0.0380187 0.451409 0.060122 0.484506 0.0879898 0.512386L3.57557 3.99996L0.0879898 7.48754C0.0459852 7.52952 0.0173764 7.58301 0.00578356 7.64125C-0.00580931 7.69949 0.000134945 7.75987 0.0228639 7.81473C0.0455928 7.86959 0.0840859 7.91648 0.133471 7.94946C0.182856 7.98244 0.240913 8.00003 0.300297 8Z" fill="#495584"/>
</g>
</svg>
