<svg width="34" height="13" viewBox="0 0 34 13" fill="none" xmlns="http://www.w3.org/2000/svg">
<g id="Group 198">
<rect id="Rectangle 55" width="34" height="13" rx="2" fill="#635ACA"/>
<g id="Group 188">
<path id="Vector" d="M19.7336 4.52655L19.3825 4.17552C19.1485 3.94149 18.7975 3.94149 18.5634 4.17552L14.2925 8.44645L14 9.90909L15.4626 9.61656L19.7336 5.34563C19.9676 5.11161 19.9676 4.76057 19.7336 4.52655ZM14.3803 9.5288L14.5558 8.62195L15.2871 9.35326L14.3803 9.5288ZM15.5212 9.14852L14.7606 8.38793L18.0369 5.11161L18.7975 5.87218L15.5212 9.14852ZM19.5288 5.14087L19.0315 5.63816L18.2709 4.87759L18.7682 4.38029C18.8852 4.26328 19.0607 4.26328 19.1778 4.38029L19.5288 4.73133C19.6458 4.84834 19.6458 5.02386 19.5288 5.14087Z" fill="white"/>
</g>
</g>
</svg>
