<svg width="34" height="13" viewBox="0 0 34 13" fill="none" xmlns="http://www.w3.org/2000/svg">
<g id="Group 188">
<rect id="Rectangle 55" width="34" height="13" rx="2" fill="#635ACA"/>
<path id="Vector" d="M20.7327 2.80198L20.198 2.26733C19.8416 1.91089 19.3069 1.91089 18.9505 2.26733L12.4455 8.77228L12 11L14.2277 10.5545L20.7327 4.0495C21.0891 3.69306 21.0891 3.15841 20.7327 2.80198ZM12.5792 10.4208L12.8465 9.03959L13.9604 10.1534L12.5792 10.4208ZM14.3168 9.84159L13.1584 8.68315L18.1485 3.69307L19.3069 4.85148L14.3168 9.84159ZM20.4208 3.73763L19.6634 4.49504L18.5049 3.33663L19.2624 2.57922C19.4406 2.401 19.7079 2.401 19.8861 2.57922L20.4208 3.11387C20.599 3.29209 20.599 3.55941 20.4208 3.73763Z" fill="white"/>
</g>
</svg>
