<svg width="15" height="15" viewBox="0 0 15 15" fill="none" xmlns="http://www.w3.org/2000/svg">
<g id="flag-map-marker-1_icon-icons.com_56727 1" clip-path="url(#clip0_1_957)">
<g id="Group">
<path id="Vector" d="M14.5314 4.21878C12.6041 4.92836 11.1358 5.43369 9.8439 7.03131C8.69299 8.45491 7.03132 8.94834 5.15643 8.00996V13.125H4.21883V0.468754C4.2188 0.20963 4.42846 0 4.68756 0C4.94662 0 5.1564 0.20963 5.1564 0.468754C6.19729 1.9821 8.00636 2.31728 9.84387 2.3438C12.6563 2.38492 14.5314 4.21878 14.5314 4.21878ZM6.09378 10.437V11.3909C7.19974 11.6171 7.96883 12.097 7.96883 12.6564C7.96883 13.4327 6.49935 14.0627 4.68756 14.0627C2.8757 14.0627 1.40635 13.4327 1.40635 12.6562C1.40635 12.097 2.17534 11.6171 3.28127 11.3909V10.437C1.57848 10.7318 0.46875 11.5577 0.46875 12.6562C0.46875 14.0359 2.20369 15 4.68753 15C7.1713 15 8.90633 14.0359 8.90633 12.6562C8.90639 11.5577 7.79657 10.7318 6.09378 10.437Z" fill="#FF0000"/>
</g>
</g>
<defs>
<clipPath id="clip0_1_957">
<rect width="15" height="15" fill="white"/>
</clipPath>
</defs>
</svg>
