<svg width="23" height="24" viewBox="0 0 23 24" fill="none" xmlns="http://www.w3.org/2000/svg">
<path d="M22.5849 12C22.5849 18.5012 17.5735 23.75 11.4175 23.75C5.26142 23.75 0.25 18.5012 0.25 12C0.25 5.49879 5.26142 0.25 11.4175 0.25C17.5735 0.25 22.5849 5.49879 22.5849 12Z" fill="white" stroke="#C6C6C6" stroke-width="0.5"/>
<path d="M17.1876 9.65628C15.5173 10.2712 14.2448 10.7092 13.1251 12.0938C12.1277 13.3276 10.6876 13.7552 9.06266 12.942V17.375H8.25007V6.40625C8.25005 6.18168 8.43175 6 8.6563 6C8.88082 6 9.06263 6.18168 9.06263 6.40625C9.96473 7.71782 11.5326 8.00831 13.1251 8.03129C15.5626 8.06693 17.1876 9.65628 17.1876 9.65628ZM9.87503 15.0454V15.8721C10.8335 16.0682 11.5001 16.4841 11.5001 16.9689C11.5001 17.6417 10.2265 18.1877 8.6563 18.1877C7.08603 18.1877 5.81259 17.6417 5.81259 16.9687C5.81259 16.4841 6.47905 16.0682 7.43751 15.8721V15.0454C5.96177 15.3009 5 16.0166 5 16.9687C5 18.1645 6.50361 19 8.65627 19C10.8089 19 12.3126 18.1645 12.3126 16.9687C12.3126 16.0166 11.3508 15.3009 9.87503 15.0454Z" fill="#C6C6C6"/>
</svg>
