<svg width="44" height="44" viewBox="0 0 44 44" fill="none" xmlns="http://www.w3.org/2000/svg">
<g id="Group 4">
<g id="Ellipse 3" filter="url(#filter0_d_1_118)">
<circle cx="21" cy="20" r="17" fill="white"/>
</g>
<g id="Layer 30">
<path id="Vector" d="M28.5193 27.5459H13.6728C13.5578 27.5455 13.4447 27.5158 13.3444 27.4595C13.2441 27.4031 13.1599 27.3221 13.0997 27.2241C13.0395 27.126 13.0054 27.0142 13.0006 26.8993C12.9958 26.7843 13.0204 26.6701 13.0722 26.5674C13.9049 24.8891 14.3412 23.0421 14.3476 21.1686V18.7729C14.3476 16.9831 15.0586 15.2666 16.3242 14.0011C17.5898 12.7355 19.3063 12.0245 21.0961 12.0245C22.8859 12.0245 24.6023 12.7355 25.8679 14.0011C27.1335 15.2666 27.8445 16.9831 27.8445 18.7729V21.1551C27.8509 23.0286 28.2873 24.8756 29.1199 26.5539C29.1749 26.6571 29.2021 26.7728 29.1989 26.8896C29.1957 27.0065 29.1621 27.1206 29.1016 27.2206C29.041 27.3206 28.9555 27.4032 28.8535 27.4602C28.7514 27.5172 28.6362 27.5467 28.5193 27.5459ZM14.7188 26.1962H27.4733C26.8298 24.5933 26.4977 22.8824 26.4948 21.1551V18.7729C26.4948 17.3411 25.926 15.9679 24.9136 14.9554C23.9011 13.943 22.5279 13.3742 21.0961 13.3742C19.6642 13.3742 18.291 13.943 17.2786 14.9554C16.2661 15.9679 15.6973 17.3411 15.6973 18.7729V21.1551C15.6944 22.8824 15.3623 24.5933 14.7188 26.1962Z" fill="#4A5885"/>
<path id="Vector_2" d="M21.0961 30.2453C20.2012 30.2453 19.343 29.8898 18.7102 29.257C18.0774 28.6242 17.7219 27.766 17.7219 26.8711C17.7219 26.6921 17.793 26.5204 17.9196 26.3939C18.0461 26.2673 18.2178 26.1962 18.3968 26.1962C18.5757 26.1962 18.7474 26.2673 18.874 26.3939C19.0005 26.5204 19.0716 26.6921 19.0716 26.8711C19.0721 27.4078 19.2857 27.9224 19.6655 28.3017C20.0517 28.6682 20.5638 28.8725 21.0961 28.8725C21.6285 28.8725 22.1406 28.6682 22.5268 28.3017C22.5897 28.2388 22.6644 28.1889 22.7466 28.1549C22.8288 28.1208 22.917 28.1033 23.0059 28.1033C23.0949 28.1033 23.183 28.1208 23.2652 28.1549C23.3475 28.1889 23.4222 28.2388 23.4851 28.3017C23.548 28.3647 23.5979 28.4394 23.632 28.5216C23.666 28.6038 23.6835 28.6919 23.6835 28.7809C23.6835 28.8699 23.666 28.958 23.632 29.0402C23.5979 29.1224 23.548 29.1971 23.4851 29.26C23.1711 29.5732 22.7986 29.8213 22.3887 29.9904C21.9788 30.1595 21.5395 30.2461 21.0961 30.2453Z" fill="#4A5885"/>
<path id="Vector_3" d="M21.096 13.3742C20.917 13.3742 20.7454 13.3031 20.6188 13.1766C20.4922 13.05 20.4211 12.8783 20.4211 12.6994V10.6748C20.4211 10.4959 20.4922 10.3242 20.6188 10.1977C20.7454 10.0711 20.917 10 21.096 10C21.275 10 21.4466 10.0711 21.5732 10.1977C21.6997 10.3242 21.7708 10.4959 21.7708 10.6748V12.6994C21.7708 12.8783 21.6997 13.05 21.5732 13.1766C21.4466 13.3031 21.275 13.3742 21.096 13.3742Z" fill="#4A5885"/>
</g>
</g>
<defs>
<filter id="filter0_d_1_118" x="0" y="0" width="44" height="44" filterUnits="userSpaceOnUse" color-interpolation-filters="sRGB">
<feFlood flood-opacity="0" result="BackgroundImageFix"/>
<feColorMatrix in="SourceAlpha" type="matrix" values="0 0 0 0 0 0 0 0 0 0 0 0 0 0 0 0 0 0 127 0" result="hardAlpha"/>
<feOffset dx="1" dy="2"/>
<feGaussianBlur stdDeviation="2.5"/>
<feComposite in2="hardAlpha" operator="out"/>
<feColorMatrix type="matrix" values="0 0 0 0 0.886111 0 0 0 0 0.892223 0 0 0 0 0.916667 0 0 0 1 0"/>
<feBlend mode="normal" in2="BackgroundImageFix" result="effect1_dropShadow_1_118"/>
<feBlend mode="normal" in="SourceGraphic" in2="effect1_dropShadow_1_118" result="shape"/>
</filter>
</defs>
</svg>
