<svg width="44" height="44" viewBox="0 0 44 44" fill="none" xmlns="http://www.w3.org/2000/svg">
<g id="Group 6">
<g id="Ellipse 3" filter="url(#filter0_d_1_125)">
<circle cx="21" cy="20" r="17" fill="white"/>
</g>
<g id="Group 5">
<path id="Vector" d="M21 16C20.2089 16 19.4355 16.2346 18.7777 16.6741C18.1199 17.1136 17.6072 17.7384 17.3045 18.4693C17.0017 19.2002 16.9225 20.0044 17.0769 20.7804C17.2312 21.5563 17.6122 22.269 18.1716 22.8284C18.731 23.3878 19.4437 23.7688 20.2196 23.9231C20.9956 24.0775 21.7998 23.9983 22.5307 23.6955C23.2616 23.3928 23.8864 22.8801 24.3259 22.2223C24.7654 21.5645 25 20.7911 25 20C25 18.9391 24.5786 17.9217 23.8284 17.1716C23.0783 16.4214 22.0609 16 21 16ZM21 23.04C20.3987 23.04 19.811 22.8617 19.3111 22.5277C18.8111 22.1936 18.4215 21.7188 18.1914 21.1634C17.9613 20.6079 17.9011 19.9966 18.0184 19.4069C18.1357 18.8172 18.4252 18.2755 18.8504 17.8504C19.2755 17.4252 19.8172 17.1357 20.4069 17.0184C20.9966 16.9011 21.6079 16.9613 22.1634 17.1914C22.7188 17.4215 23.1936 17.8111 23.5277 18.3111C23.8617 18.811 24.04 19.3987 24.04 20C24.04 20.8063 23.7197 21.5795 23.1496 22.1496C22.5795 22.7197 21.8063 23.04 21 23.04Z" fill="#4A5885"/>
<path id="Vector_2" d="M29.0156 17.75H27.7598C27.7306 17.7498 27.7022 17.7405 27.6785 17.7233C27.6548 17.7062 27.637 17.6821 27.6277 17.6544C27.5459 17.4223 27.4521 17.1946 27.3464 16.9723C27.3332 16.9461 27.3286 16.9164 27.3331 16.8874C27.3376 16.8584 27.3511 16.8316 27.3717 16.8106L28.2591 15.9219C28.3505 15.8305 28.423 15.7219 28.4725 15.6025C28.5219 15.4831 28.5474 15.3551 28.5474 15.2258C28.5474 15.0965 28.5219 14.9685 28.4725 14.8491C28.423 14.7296 28.3505 14.6211 28.2591 14.5297L26.4689 12.7409C26.3775 12.6495 26.269 12.577 26.1495 12.5275C26.0301 12.4781 25.9021 12.4526 25.7728 12.4526C25.6435 12.4526 25.5155 12.4781 25.3961 12.5275C25.2766 12.577 25.1681 12.6495 25.0767 12.7409L24.1894 13.6283C24.1684 13.6489 24.1416 13.6624 24.1126 13.6669C24.0836 13.6714 24.0539 13.6668 24.0277 13.6536C23.8054 13.5479 23.5778 13.454 23.3456 13.3723C23.3179 13.363 23.2938 13.3452 23.2767 13.3215C23.2595 13.2978 23.2502 13.2694 23.25 13.2402V11.9844C23.25 11.7233 23.1463 11.4729 22.9617 11.2883C22.7771 11.1037 22.5267 11 22.2656 11H19.7344C19.4733 11 19.2229 11.1037 19.0383 11.2883C18.8537 11.4729 18.75 11.7233 18.75 11.9844V13.2402C18.7498 13.2694 18.7405 13.2978 18.7233 13.3215C18.7062 13.3452 18.6821 13.363 18.6544 13.3723C18.4223 13.4541 18.1946 13.5479 17.9723 13.6536C17.9461 13.6668 17.9164 13.6714 17.8874 13.6669C17.8584 13.6624 17.8316 13.6489 17.8106 13.6283L16.9219 12.7409C16.8305 12.6495 16.7219 12.577 16.6025 12.5275C16.4831 12.4781 16.3551 12.4526 16.2258 12.4526C16.0965 12.4526 15.9685 12.4781 15.8491 12.5275C15.7296 12.577 15.6211 12.6495 15.5297 12.7409L13.7409 14.5311C13.6495 14.6225 13.577 14.731 13.5275 14.8505C13.4781 14.9699 13.4526 15.0979 13.4526 15.2272C13.4526 15.3565 13.4781 15.4845 13.5275 15.6039C13.577 15.7234 13.6495 15.8319 13.7409 15.9233L14.6283 16.8106C14.6489 16.8316 14.6624 16.8584 14.6669 16.8874C14.6714 16.9164 14.6668 16.9461 14.6536 16.9723C14.5479 17.1946 14.454 17.4222 14.3723 17.6544C14.363 17.6821 14.3452 17.7062 14.3215 17.7233C14.2978 17.7405 14.2694 17.7498 14.2402 17.75H12.9844C12.7233 17.75 12.4729 17.8537 12.2883 18.0383C12.1037 18.2229 12 18.4733 12 18.7344V21.2656C12 21.5267 12.1037 21.7771 12.2883 21.9617C12.4729 22.1463 12.7233 22.25 12.9844 22.25H14.2402C14.2694 22.2502 14.2978 22.2595 14.3215 22.2767C14.3452 22.2938 14.363 22.3179 14.3723 22.3456C14.4541 22.5777 14.5479 22.8054 14.6536 23.0277C14.6668 23.0539 14.6714 23.0836 14.6669 23.1126C14.6624 23.1416 14.6489 23.1684 14.6283 23.1894L13.7409 24.0781C13.6495 24.1695 13.577 24.2781 13.5275 24.3975C13.4781 24.5169 13.4526 24.6449 13.4526 24.7742C13.4526 24.9035 13.4781 25.0315 13.5275 25.1509C13.577 25.2704 13.6495 25.3789 13.7409 25.4703L15.5311 27.2605C15.6225 27.3519 15.731 27.4244 15.8505 27.4739C15.9699 27.5234 16.0979 27.5488 16.2272 27.5488C16.3565 27.5488 16.4845 27.5234 16.6039 27.4739C16.7234 27.4244 16.8319 27.3519 16.9233 27.2605L17.8106 26.3731C17.8316 26.3526 17.8584 26.3391 17.8874 26.3345C17.9164 26.33 17.9461 26.3346 17.9723 26.3478C18.1946 26.4535 18.4222 26.5474 18.6544 26.6291C18.6821 26.6384 18.7062 26.6562 18.7233 26.6799C18.7405 26.7036 18.7498 26.732 18.75 26.7613V28.0156C18.75 28.2767 18.8537 28.5271 19.0383 28.7117C19.2229 28.8963 19.4733 29 19.7344 29H22.2656C22.5267 29 22.7771 28.8963 22.9617 28.7117C23.1463 28.5271 23.25 28.2767 23.25 28.0156V26.7598C23.2502 26.7306 23.2595 26.7022 23.2767 26.6785C23.2938 26.6548 23.3179 26.637 23.3456 26.6277C23.5777 26.5459 23.8054 26.4521 24.0277 26.3464C24.0539 26.3332 24.0836 26.3286 24.1126 26.3331C24.1416 26.3376 24.1684 26.3511 24.1894 26.3717L25.0781 27.2591C25.1695 27.3505 25.2781 27.423 25.3975 27.4725C25.5169 27.5219 25.6449 27.5474 25.7742 27.5474C25.9035 27.5474 26.0315 27.5219 26.1509 27.4725C26.2704 27.423 26.3789 27.3505 26.4703 27.2591L28.2605 25.4689C28.3519 25.3775 28.4244 25.269 28.4739 25.1495C28.5234 25.0301 28.5488 24.9021 28.5488 24.7728C28.5488 24.6435 28.5234 24.5155 28.4739 24.3961C28.4244 24.2766 28.3519 24.1681 28.2605 24.0767L27.3731 23.1894C27.3526 23.1684 27.3391 23.1416 27.3345 23.1126C27.33 23.0836 27.3346 23.0539 27.3478 23.0277C27.4535 22.8054 27.5474 22.5778 27.6291 22.3456C27.6384 22.3179 27.6562 22.2938 27.6799 22.2767C27.7036 22.2595 27.732 22.2502 27.7613 22.25H29.0156C29.2767 22.25 29.5271 22.1463 29.7117 21.9617C29.8963 21.7771 30 21.5267 30 21.2656V18.7344C30 18.4733 29.8963 18.2229 29.7117 18.0383C29.5271 17.8537 29.2767 17.75 29.0156 17.75ZM29.1562 21.2656C29.1562 21.3029 29.1414 21.3387 29.1151 21.3651C29.0887 21.3914 29.0529 21.4062 29.0156 21.4062H27.7598C27.5559 21.4065 27.357 21.4701 27.1908 21.5882C27.0245 21.7064 26.899 21.8732 26.8317 22.0658C26.7598 22.2697 26.6772 22.4696 26.5842 22.6648C26.4951 22.8489 26.4655 23.056 26.4995 23.2577C26.5336 23.4593 26.6295 23.6453 26.7741 23.7898L27.6614 24.6772C27.6876 24.7035 27.7023 24.7392 27.7023 24.7763C27.7023 24.8135 27.6876 24.8491 27.6614 24.8755L25.8727 26.6628C25.8463 26.689 25.8107 26.7037 25.7735 26.7037C25.7364 26.7037 25.7007 26.689 25.6744 26.6628L24.787 25.7755C24.6424 25.6309 24.4564 25.535 24.2548 25.5009C24.0532 25.4669 23.846 25.4965 23.662 25.5856C23.4664 25.6786 23.2659 25.7612 23.0616 25.8331C22.8693 25.9007 22.7027 26.0262 22.5848 26.1925C22.4669 26.3587 22.4036 26.5575 22.4034 26.7613V28.0156C22.4034 28.0529 22.3886 28.0887 22.3622 28.1151C22.3359 28.1414 22.3001 28.1562 22.2628 28.1562H19.7344C19.6971 28.1562 19.6613 28.1414 19.6349 28.1151C19.6086 28.0887 19.5938 28.0529 19.5938 28.0156V26.7598C19.5935 26.5559 19.5299 26.357 19.4118 26.1908C19.2936 26.0245 19.1268 25.899 18.9342 25.8317C18.7303 25.7598 18.5304 25.6772 18.3352 25.5842C18.1511 25.4951 17.944 25.4655 17.7423 25.4995C17.5407 25.5336 17.3547 25.6295 17.2102 25.7741L16.3228 26.6614C16.2965 26.6876 16.2608 26.7023 16.2237 26.7023C16.1865 26.7023 16.1509 26.6876 16.1245 26.6614L14.3372 24.8727C14.311 24.8463 14.2963 24.8107 14.2963 24.7735C14.2963 24.7364 14.311 24.7007 14.3372 24.6744L15.2245 23.787C15.3691 23.6424 15.465 23.4564 15.4991 23.2548C15.5331 23.0532 15.5035 22.846 15.4144 22.662C15.3214 22.4664 15.2388 22.2659 15.1669 22.0616C15.0989 21.87 14.9734 21.7042 14.8075 21.5869C14.6415 21.4696 14.4434 21.4065 14.2402 21.4062H12.9844C12.9471 21.4062 12.9113 21.3914 12.8849 21.3651C12.8586 21.3387 12.8438 21.3029 12.8438 21.2656V18.7344C12.8438 18.6971 12.8586 18.6613 12.8849 18.6349C12.9113 18.6086 12.9471 18.5938 12.9844 18.5938H14.2402C14.4441 18.5935 14.643 18.5299 14.8092 18.4118C14.9755 18.2936 15.101 18.1268 15.1683 17.9342C15.2402 17.7303 15.3228 17.5304 15.4158 17.3352C15.5049 17.1511 15.5345 16.944 15.5005 16.7423C15.4664 16.5407 15.3705 16.3547 15.2259 16.2102L14.3386 15.3228C14.3124 15.2965 14.2977 15.2608 14.2977 15.2237C14.2977 15.1865 14.3124 15.1509 14.3386 15.1245L16.1273 13.3372C16.1537 13.311 16.1893 13.2963 16.2265 13.2963C16.2636 13.2963 16.2993 13.311 16.3256 13.3372L17.213 14.2245C17.3576 14.3691 17.5436 14.465 17.7452 14.4991C17.9468 14.5331 18.154 14.5035 18.338 14.4144C18.5336 14.3214 18.7341 14.2388 18.9384 14.1669C19.13 14.0989 19.2958 13.9734 19.4131 13.8075C19.5304 13.6415 19.5935 13.4434 19.5938 13.2402V11.9844C19.5938 11.9471 19.6086 11.9113 19.6349 11.8849C19.6613 11.8586 19.6971 11.8438 19.7344 11.8438H22.2656C22.3029 11.8438 22.3387 11.8586 22.3651 11.8849C22.3914 11.9113 22.4062 11.9471 22.4062 11.9844V13.2402C22.4065 13.4441 22.4701 13.643 22.5882 13.8092C22.7064 13.9755 22.8732 14.101 23.0658 14.1683C23.2697 14.2402 23.4696 14.3228 23.6648 14.4158C23.8489 14.5049 24.056 14.5345 24.2577 14.5005C24.4593 14.4664 24.6453 14.3705 24.7898 14.2259L25.6772 13.3386C25.7035 13.3124 25.7392 13.2977 25.7763 13.2977C25.8135 13.2977 25.8491 13.3124 25.8755 13.3386L27.6656 15.1287C27.6918 15.1551 27.7065 15.1907 27.7065 15.2279C27.7065 15.265 27.6918 15.3007 27.6656 15.327L26.7783 16.2144C26.6337 16.359 26.5378 16.545 26.5038 16.7466C26.4697 16.9482 26.4993 17.1554 26.5884 17.3394C26.6814 17.535 26.764 17.7355 26.8359 17.9398C26.9035 18.1321 27.029 18.2987 27.1953 18.4166C27.3615 18.5345 27.5603 18.5978 27.7641 18.598H29.0156C29.0529 18.598 29.0887 18.6128 29.1151 18.6392C29.1414 18.6655 29.1562 18.7013 29.1562 18.7386V21.2656Z" fill="#4A5885"/>
</g>
</g>
<defs>
<filter id="filter0_d_1_125" x="0" y="0" width="44" height="44" filterUnits="userSpaceOnUse" color-interpolation-filters="sRGB">
<feFlood flood-opacity="0" result="BackgroundImageFix"/>
<feColorMatrix in="SourceAlpha" type="matrix" values="0 0 0 0 0 0 0 0 0 0 0 0 0 0 0 0 0 0 127 0" result="hardAlpha"/>
<feOffset dx="1" dy="2"/>
<feGaussianBlur stdDeviation="2.5"/>
<feComposite in2="hardAlpha" operator="out"/>
<feColorMatrix type="matrix" values="0 0 0 0 0.886111 0 0 0 0 0.892223 0 0 0 0 0.916667 0 0 0 1 0"/>
<feBlend mode="normal" in2="BackgroundImageFix" result="effect1_dropShadow_1_125"/>
<feBlend mode="normal" in="SourceGraphic" in2="effect1_dropShadow_1_125" result="shape"/>
</filter>
</defs>
</svg>
