<svg width="44" height="44" viewBox="0 0 44 44" fill="none" xmlns="http://www.w3.org/2000/svg">
<g id="Group 118">
<g id="Ellipse 1" filter="url(#filter0_d_1_111)">
<circle cx="21" cy="20" r="17" fill="white"/>
</g>
<g id="menu">
<path id="Vector" d="M26.9 15H13.9C13.7674 15 13.6402 15.0527 13.5465 15.1464C13.4527 15.2402 13.4 15.3674 13.4 15.5C13.4 15.6326 13.4527 15.7598 13.5465 15.8536C13.6402 15.9473 13.7674 16 13.9 16H26.9C27.0326 16 27.1598 15.9473 27.2536 15.8536C27.3473 15.7598 27.4 15.6326 27.4 15.5C27.4 15.3674 27.3473 15.2402 27.2536 15.1464C27.1598 15.0527 27.0326 15 26.9 15Z" fill="#495585"/>
<path id="Vector_2" d="M13.9 20.5H20.4C20.5326 20.5 20.6598 20.4474 20.7536 20.3536C20.8473 20.2598 20.9 20.1326 20.9 20C20.9 19.8674 20.8473 19.7402 20.7536 19.6465C20.6598 19.5527 20.5326 19.5 20.4 19.5H13.9C13.7674 19.5 13.6402 19.5527 13.5465 19.6465C13.4527 19.7402 13.4 19.8674 13.4 20C13.4 20.1326 13.4527 20.2598 13.5465 20.3536C13.6402 20.4474 13.7674 20.5 13.9 20.5Z" fill="#495585"/>
<path id="Vector_3" d="M24.9 24H13.9C13.7674 24 13.6402 24.0527 13.5465 24.1465C13.4527 24.2402 13.4 24.3674 13.4 24.5C13.4 24.6326 13.4527 24.7598 13.5465 24.8536C13.6402 24.9474 13.7674 25 13.9 25H24.9C25.0326 25 25.1598 24.9474 25.2536 24.8536C25.3473 24.7598 25.4 24.6326 25.4 24.5C25.4 24.3674 25.3473 24.2402 25.2536 24.1465C25.1598 24.0527 25.0326 24 24.9 24Z" fill="#495585"/>
</g>
</g>
<defs>
<filter id="filter0_d_1_111" x="0" y="0" width="44" height="44" filterUnits="userSpaceOnUse" color-interpolation-filters="sRGB">
<feFlood flood-opacity="0" result="BackgroundImageFix"/>
<feColorMatrix in="SourceAlpha" type="matrix" values="0 0 0 0 0 0 0 0 0 0 0 0 0 0 0 0 0 0 127 0" result="hardAlpha"/>
<feOffset dx="1" dy="2"/>
<feGaussianBlur stdDeviation="2.5"/>
<feComposite in2="hardAlpha" operator="out"/>
<feColorMatrix type="matrix" values="0 0 0 0 0.886111 0 0 0 0 0.892223 0 0 0 0 0.916667 0 0 0 1 0"/>
<feBlend mode="normal" in2="BackgroundImageFix" result="effect1_dropShadow_1_111"/>
<feBlend mode="normal" in="SourceGraphic" in2="effect1_dropShadow_1_111" result="shape"/>
</filter>
</defs>
</svg>
