<svg width="50" height="18" viewBox="0 0 50 18" fill="none" xmlns="http://www.w3.org/2000/svg">
<g id="ziki">
<path d="M0 17.8329V17.2361L9.96287 0.692307V0.549072L13.8241 0.405834V0.835543L3.93271 17.3077V17.5703L0 17.8329ZM0 18V17.4032H9.224C10.0185 17.4032 10.6859 17.1645 11.2261 16.687C11.7822 16.1936 12.2113 15.5491 12.5132 14.7533C12.8151 13.9416 12.974 13.0743 12.9899 12.1512H13.8241V18H0ZM0.953385 4.8939V0H13.8241V0.596816H5.55347C4.77487 0.596816 4.1075 0.795755 3.55136 1.19363C2.99522 1.59151 2.56619 2.11671 2.26429 2.76923C1.96238 3.40583 1.80349 4.11406 1.7876 4.8939H0.953385Z" fill="#0E0C22"/>
<path d="M17.7894 17.6419V0H20.9832V17.6419H17.7894ZM15.1676 18V17.4032H23.605V18H15.1676ZM15.1676 0.596816V0H23.605V0.596816H15.1676Z" fill="#0E0C22"/>
<path d="M24.1987 18V17.4032H26.8205V0.596816H24.1987V0H32.3978V0.596816H30.0143V17.4032H32.3978V18H24.1987ZM34.2807 18V17.4032H42.5751V18H34.2807ZM37.117 17.6419L30.2526 8.83289L32.5169 6.80371L41.1212 17.6419H37.117ZM29.4899 10.5995V9.38196L37.4507 0.429707H38.4756L29.4899 10.5995ZM34.3284 0.596816V0H41.0736V0.596816H34.3284Z" fill="#0E0C22"/>
<path d="M44.1844 17.6419V0H47.3782V17.6419H44.1844ZM41.5625 18V17.4032H50V18H41.5625ZM41.5625 0.596816V0H50V0.596816H41.5625Z" fill="#0E0C22"/>
</g>
</svg>
